<svg width="17" height="17" viewBox="0 0 17 17" fill="none" xmlns="http://www.w3.org/2000/svg">
<path d="M5.01896 2.53343C5.09792 2.45427 5.19173 2.39146 5.295 2.3486C5.39827 2.30575 5.50899 2.28369 5.6208 2.28369C5.73262 2.28369 5.84333 2.30575 5.9466 2.3486C6.04988 2.39146 6.14368 2.45427 6.22265 2.53343L11.8739 8.18466C11.9369 8.24757 11.9869 8.3223 12.0211 8.40457C12.0552 8.48684 12.0728 8.57503 12.0728 8.66409C12.0728 8.75316 12.0552 8.84135 12.0211 8.92362C11.9869 9.00589 11.9369 9.08062 11.8739 9.14353L6.22265 14.7948C5.88942 15.128 5.35218 15.128 5.01896 14.7948C4.68573 14.4615 4.68573 13.9243 5.01896 13.5911L9.94253 8.66069L5.01216 3.73032C4.68573 3.4039 4.68573 2.85985 5.01896 2.53343Z" fill="#6C7278" stroke="#6C7278" stroke-width="0.2"/>
</svg>
