<svg width="14" height="14" viewBox="0 0 14 14" fill="none" xmlns="http://www.w3.org/2000/svg">
<path d="M8.64493 6.99989L13.6616 1.99489C13.8813 1.7752 14.0047 1.47724 14.0047 1.16656C14.0047 0.855872 13.8813 0.557912 13.6616 0.338224C13.4419 0.118537 13.1439 -0.00488281 12.8333 -0.00488281C12.5226 -0.00488281 12.2246 0.118537 12.0049 0.338224L6.99993 5.35489L1.99493 0.338224C1.77524 0.118537 1.47728 -0.00488281 1.1666 -0.00488281C0.85591 -0.00488281 0.55795 0.118537 0.338262 0.338224C0.118574 0.557912 -0.0048449 0.855872 -0.0048449 1.16656C-0.00484491 1.47724 0.118574 1.7752 0.338262 1.99489L5.35493 6.99989L0.338262 12.0049C0.228912 12.1133 0.142119 12.2424 0.0828891 12.3846C0.023659 12.5267 -0.00683594 12.6792 -0.00683594 12.8332C-0.00683594 12.9872 0.023659 13.1397 0.0828891 13.2819C0.142119 13.4241 0.228912 13.5531 0.338262 13.6616C0.446719 13.7709 0.575753 13.8577 0.717923 13.9169C0.860092 13.9762 1.01258 14.0067 1.1666 14.0067C1.32061 14.0067 1.4731 13.9762 1.61527 13.9169C1.75744 13.8577 1.88647 13.7709 1.99493 13.6616L6.99993 8.64489L12.0049 13.6616C12.1134 13.7709 12.2424 13.8577 12.3846 13.9169C12.5268 13.9762 12.6792 14.0067 12.8333 14.0067C12.9873 14.0067 13.1398 13.9762 13.2819 13.9169C13.4241 13.8577 13.5531 13.7709 13.6616 13.6616C13.7709 13.5531 13.8577 13.4241 13.917 13.2819C13.9762 13.1397 14.0067 12.9872 14.0067 12.8332C14.0067 12.6792 13.9762 12.5267 13.917 12.3846C13.8577 12.2424 13.7709 12.1133 13.6616 12.0049L8.64493 6.99989Z" fill="#212121"/>
</svg>
