<svg width="16" height="16" viewBox="0 0 16 16" fill="none" xmlns="http://www.w3.org/2000/svg">
<path d="M12.3337 8.43359V10.9003C12.3337 12.9803 10.3937 14.6669 8.00033 14.6669C5.60699 14.6669 3.66699 12.9803 3.66699 10.9003V8.43359C3.66699 10.5136 5.60699 12.0003 8.00033 12.0003C10.3937 12.0003 12.3337 10.5136 12.3337 8.43359Z" stroke="#E9D524" stroke-linecap="round" stroke-linejoin="round"/>
<path d="M12.3337 5.10065C12.3337 5.70732 12.167 6.26732 11.8737 6.74732C11.1603 7.92065 9.69366 8.66732 8.00033 8.66732C6.30699 8.66732 4.84033 7.92065 4.12699 6.74732C3.83366 6.26732 3.66699 5.70732 3.66699 5.10065C3.66699 4.06065 4.15365 3.12065 4.93365 2.44065C5.72032 1.75398 6.80033 1.33398 8.00033 1.33398C9.20033 1.33398 10.2803 1.75399 11.067 2.43399C11.847 3.12065 12.3337 4.06065 12.3337 5.10065Z" stroke="#E9D524" stroke-linecap="round" stroke-linejoin="round"/>
<path d="M12.3337 5.10065V8.43399C12.3337 10.514 10.3937 12.0007 8.00033 12.0007C5.60699 12.0007 3.66699 10.514 3.66699 8.43399V5.10065C3.66699 3.02065 5.60699 1.33398 8.00033 1.33398C9.20033 1.33398 10.2803 1.75399 11.067 2.43399C11.847 3.12065 12.3337 4.06065 12.3337 5.10065Z" stroke="#E9D524" stroke-linecap="round" stroke-linejoin="round"/>
</svg>
