<svg width="24" height="24" viewBox="0 0 24 24" fill="none" xmlns="http://www.w3.org/2000/svg">
<path d="M7.28223 3.86914C5.98749 3.86914 4.87634 4.28985 4.08789 5.07812C3.29949 5.86652 2.878 6.97771 2.87793 8.27246V13.7842C2.87793 15.0791 3.29944 16.1901 4.08789 16.9785C4.87635 17.767 5.98734 18.1885 7.28223 18.1885C7.38261 18.1886 7.4707 18.2775 7.4707 18.3779V20.334C7.4707 20.7159 7.73008 20.9031 7.83301 20.9648C7.9728 21.0487 8.22105 21.1215 8.48438 21.0088L8.59766 20.9492L8.60645 20.9434L12.6943 18.2246V18.2236C12.7294 18.2003 12.7718 18.1885 12.8027 18.1885H16.4775C17.7723 18.1884 18.8835 17.7669 19.6719 16.9785C20.4601 16.1901 20.8809 15.0789 20.8809 13.7842V8.27246C20.8808 6.97771 20.4603 5.86652 19.6719 5.07812C18.8835 4.28973 17.7723 3.86921 16.4775 3.86914H7.28223ZM7.09277 18.5879L6.64453 18.541C5.37038 18.4102 4.34228 17.8814 3.63184 17.0742C2.92076 16.2663 2.50008 15.1487 2.5 13.7939V8.28223C2.5 6.81676 2.98989 5.62925 3.80957 4.80957C4.62925 3.98989 5.81676 3.5 7.28223 3.5H16.4678C17.9332 3.5 19.1208 3.98989 19.9404 4.80957C20.7601 5.62925 21.25 6.81676 21.25 8.28223V13.7939C21.2499 15.2591 20.7599 16.446 19.9404 17.2656C19.1208 18.0853 17.9332 18.5752 16.4678 18.5752H12.8535L12.7275 18.6592L8.81738 21.2666C8.63292 21.3874 8.41557 21.4512 8.2002 21.4512C8.02442 21.4511 7.83943 21.406 7.6748 21.3174L7.6709 21.3154C7.31681 21.129 7.09277 20.751 7.09277 20.3428V18.5879Z" fill="#008080" stroke="#008080"/>
<path d="M11.875 7.56055C12.8206 7.56058 13.5889 8.32881 13.5889 9.27441C13.5889 10.0378 13.0395 10.4291 12.7549 10.6221C12.5635 10.7497 12.3836 10.8893 12.2568 11.0664C12.1135 11.2667 12.0635 11.4768 12.0635 11.6904V11.8828C12.0635 11.9881 11.9798 12.0722 11.875 12.0723C11.7745 12.0723 11.6855 11.9833 11.6855 11.8828V11.6904C11.6855 10.9069 12.2459 10.5164 12.5439 10.3115L12.543 10.3105C12.7257 10.1869 12.8974 10.0519 13.0195 9.88184C13.1577 9.6893 13.2109 9.48546 13.2109 9.27441C13.2109 8.53903 12.6105 7.93851 11.875 7.93848C11.1395 7.93848 10.5391 8.53901 10.5391 9.27441C10.5391 9.3749 10.4501 9.46289 10.3496 9.46289C10.2493 9.46261 10.1611 9.37474 10.1611 9.27441C10.1611 8.3288 10.9294 7.56055 11.875 7.56055Z" fill="#008080" stroke="#008080"/>
<path d="M11.8755 14.8584C11.4897 14.8584 11.1865 14.5461 11.1865 14.1694C11.1865 13.7928 11.4988 13.4805 11.8755 13.4805C12.2521 13.4805 12.5644 13.7928 12.5644 14.1694C12.5644 14.5461 12.2613 14.8584 11.8755 14.8584Z" fill="#008080"/>
</svg>
