<svg width="16" height="16" viewBox="0 0 16 16" fill="none" xmlns="http://www.w3.org/2000/svg">
<path fill-rule="evenodd" clip-rule="evenodd" d="M8.31109 7.28429C8.78728 7.28429 9.24396 7.09513 9.58068 6.75841C9.91739 6.4217 10.1066 5.96501 10.1066 5.48883C10.1066 5.01264 9.91739 4.55595 9.58068 4.21924C9.24396 3.88252 8.78728 3.69336 8.31109 3.69336C7.8349 3.69336 7.37822 3.88252 7.04151 4.21924C6.70479 4.55595 6.51563 5.01264 6.51562 5.48883C6.51563 5.96501 6.70479 6.4217 7.04151 6.75841C7.37822 7.09513 7.8349 7.28429 8.31109 7.28429ZM8.31109 4.59109C8.54918 4.59109 8.77753 4.68567 8.94588 4.85403C9.11424 5.02239 9.20882 5.25073 9.20882 5.48883C9.20882 5.72692 9.11424 5.95526 8.94588 6.12362C8.77753 6.29198 8.54918 6.38656 8.31109 6.38656C8.073 6.38656 7.84466 6.29198 7.6763 6.12362C7.50794 5.95526 7.41336 5.72692 7.41336 5.48883C7.41336 5.25073 7.50794 5.02239 7.6763 4.85403C7.84466 4.68567 8.073 4.59109 8.31109 4.59109Z" fill="#7E57C2"/>
<path fill-rule="evenodd" clip-rule="evenodd" d="M4.27148 5.29655C4.27148 7.69619 6.65317 11.7728 8.31128 11.7728C9.97029 11.7728 12.3511 7.69619 12.3511 5.29655C12.3511 2.93013 10.5493 1 8.31128 1C6.07323 1 4.27148 2.93013 4.27148 5.29655ZM11.4533 5.29655C11.4533 7.26528 9.34547 10.8751 8.31128 10.8751C7.27799 10.8751 5.16922 7.26618 5.16922 5.29655C5.16922 3.41221 6.58315 1.89773 8.31128 1.89773C10.0394 1.89773 11.4533 3.41221 11.4533 5.29655Z" fill="#7E57C2"/>
<path d="M11.3948 7.85896C11.2875 7.81277 11.2024 7.72655 11.1576 7.61861C11.1129 7.51068 11.1119 7.38954 11.1551 7.28094C11.1982 7.17234 11.282 7.08485 11.3886 7.03705C11.4953 6.98925 11.6163 6.98491 11.7261 7.02496C12.0911 7.16975 12.4201 7.39263 12.69 7.67797C12.9598 7.96332 13.164 8.30422 13.2881 8.67679L14.4857 12.2677C14.6208 12.6727 14.6576 13.104 14.5932 13.5261C14.5288 13.9481 14.3649 14.3488 14.1152 14.695C13.8655 15.0413 13.537 15.3232 13.1569 15.5176C12.7768 15.712 12.3559 15.8132 11.929 15.8129H4.69325C4.26648 15.8129 3.84581 15.7115 3.46593 15.517C3.08604 15.3225 2.75781 15.0405 2.50829 14.6943C2.25877 14.3481 2.0951 13.9475 2.03077 13.5256C1.96644 13.1037 2.0033 12.6726 2.1383 12.2677L3.33498 8.67679C3.46134 8.29754 3.67054 7.95117 3.9474 7.66282C4.22426 7.37447 4.56184 7.15137 4.93564 7.0097C4.99075 6.98878 5.04945 6.97891 5.10838 6.98067C5.1673 6.98243 5.22531 6.99577 5.27907 7.01995C5.33284 7.04412 5.38132 7.07865 5.42175 7.12157C5.46217 7.16448 5.49375 7.21493 5.51468 7.27004C5.5356 7.32516 5.54547 7.38385 5.54371 7.44278C5.54195 7.50171 5.5286 7.55971 5.50443 7.61348C5.48025 7.66725 5.44572 7.71573 5.40281 7.75615C5.3599 7.79658 5.30945 7.82816 5.25433 7.84908C5.00482 7.94347 4.77947 8.09228 4.59467 8.28468C4.40988 8.47709 4.27028 8.70825 4.18603 8.96137L2.98935 12.5523C2.89945 12.8222 2.87498 13.1096 2.91795 13.3909C2.96092 13.6721 3.07011 13.9391 3.23651 14.1698C3.40291 14.4006 3.62177 14.5885 3.87504 14.7181C4.12832 14.8477 4.40875 14.9152 4.69325 14.9151H11.9308C12.2153 14.9151 12.4957 14.8475 12.749 14.7178C13.0022 14.5881 13.221 14.4001 13.3874 14.1692C13.5537 13.9384 13.6628 13.6713 13.7056 13.39C13.7484 13.1087 13.7238 12.8213 13.6338 12.5514L12.438 8.96047C12.3551 8.7122 12.219 8.48505 12.0391 8.29493C11.8592 8.10481 11.6399 7.95632 11.3966 7.85985" fill="#7E57C2"/>
</svg>
