<svg width="22" height="22" viewBox="0 0 22 22" fill="none" xmlns="http://www.w3.org/2000/svg">
<path d="M18.3332 5.13317C18.3332 4.61984 18.3332 4.36317 18.2323 4.167C18.1447 3.99467 18.0048 3.85446 17.8327 3.76642C17.6365 3.6665 17.3798 3.6665 16.8665 3.6665H5.13317C4.61984 3.6665 4.36317 3.6665 4.167 3.76642C3.99453 3.8543 3.8543 3.99453 3.76642 4.167C3.6665 4.36317 3.6665 4.61984 3.6665 5.13317V5.80875C3.6665 6.03334 3.6665 6.14517 3.69217 6.25059C3.71462 6.34444 3.75174 6.43415 3.80217 6.51642C3.85809 6.60809 3.93784 6.68784 4.0955 6.84642L8.73659 11.4866C8.89517 11.6452 8.97492 11.7249 9.03084 11.8166C9.08156 11.8997 9.11823 11.9883 9.14084 12.0824C9.1665 12.1869 9.1665 12.2978 9.1665 12.5169V16.8766C9.1665 17.6622 9.1665 18.0554 9.3315 18.2919C9.40309 18.3942 9.49482 18.4808 9.60106 18.5464C9.7073 18.6119 9.82581 18.6551 9.94934 18.6733C10.2344 18.7154 10.5864 18.5403 11.2886 18.1883L12.0219 17.8217C12.3171 17.675 12.4638 17.6017 12.571 17.4917C12.6661 17.3945 12.7385 17.2774 12.7828 17.1488C12.8332 17.004 12.8332 16.839 12.8332 16.5099V12.5243C12.8332 12.2997 12.8332 12.1878 12.8588 12.0824C12.8813 11.9886 12.9184 11.8989 12.9688 11.8166C13.0238 11.7249 13.1036 11.6461 13.2594 11.4903L13.2631 11.4866L17.9042 6.84642C18.0618 6.68784 18.1407 6.60809 18.1975 6.51642C18.2482 6.43331 18.2849 6.3447 18.3075 6.25059C18.3332 6.147 18.3332 6.03517 18.3332 5.81609V5.13317Z" stroke="#6C7278" stroke-width="1.5" stroke-linecap="round" stroke-linejoin="round"/>
</svg>
