<svg width="24" height="24" viewBox="0 0 24 24" fill="none" xmlns="http://www.w3.org/2000/svg">
<path d="M12.375 3.5C17.2704 3.5 21.25 7.47963 21.25 12.375C21.25 17.2704 17.2704 21.25 12.375 21.25C7.47963 21.25 3.5 17.2704 3.5 12.375C3.5 7.47963 7.47963 3.5 12.375 3.5ZM12.375 3.80859C7.65118 3.80859 3.80859 7.65118 3.80859 12.375C3.80859 17.0988 7.65118 20.9414 12.375 20.9414C17.0988 20.9414 20.9414 17.0988 20.9414 12.375C20.9414 7.65118 17.0988 3.80859 12.375 3.80859Z" fill="#7E57C2" stroke="#7E57C2"/>
<path d="M8.88672 4.37305H9.75879C9.80418 4.37305 9.85523 4.39826 9.88574 4.4375C9.91632 4.48519 9.91982 4.53326 9.90625 4.57227L9.9043 4.57812C8.23064 9.60801 8.23082 15.1434 9.9043 20.1816L9.90625 20.1885C9.91939 20.2263 9.91571 20.2721 9.8877 20.3184C9.85522 20.3538 9.80361 20.3789 9.75879 20.3789H8.88672C8.80546 20.3787 8.7334 20.3059 8.7334 20.2246C8.73349 20.1368 8.79741 20.0724 8.88184 20.0703L9.53223 20.0547L9.34961 19.4297C8.00743 14.8472 8.00734 9.9038 9.34961 5.32129L9.53223 4.69727L8.88184 4.68164C8.79743 4.67958 8.73351 4.61515 8.7334 4.52734C8.7334 4.44606 8.80546 4.37328 8.88672 4.37305Z" fill="#7E57C2" stroke="#7E57C2"/>
<path d="M14.9911 20.8784C14.9213 20.8784 14.8515 20.8697 14.7818 20.8436C14.4417 20.7302 14.2498 20.3552 14.3719 20.0151C16.0114 15.0877 16.0114 9.66333 14.3719 4.72728C14.2585 4.38717 14.4417 4.01216 14.7818 3.89879C15.1306 3.78542 15.4969 3.96856 15.6103 4.30868C17.3457 9.50635 17.3457 15.2273 15.6103 20.4162C15.5231 20.704 15.2614 20.8784 14.9911 20.8784Z" fill="#7E57C2"/>
<path d="M12.375 16.9093C9.94184 16.9093 7.51742 16.5692 5.18021 15.8802C5.17149 16.2291 4.8837 16.5168 4.52614 16.5168C4.16858 16.5168 3.87207 16.2203 3.87207 15.8628V14.9907C3.87207 14.7814 3.97672 14.5808 4.14242 14.4587C4.31684 14.3366 4.53486 14.3017 4.73544 14.3715C9.66277 16.011 15.0959 16.011 20.0232 14.3715C20.2238 14.3017 20.4418 14.3366 20.6163 14.4587C20.7907 14.5808 20.8866 14.7814 20.8866 14.9907V15.8628C20.8866 16.2203 20.5901 16.5168 20.2325 16.5168C19.875 16.5168 19.5872 16.2378 19.5785 15.8802C17.2325 16.5692 14.8081 16.9093 12.375 16.9093Z" fill="#7E57C2"/>
<path d="M20.2241 10.4127C20.1543 10.4127 20.0846 10.404 20.0148 10.3779C15.0875 8.73833 9.65434 8.73833 4.72701 10.3779C4.37817 10.4912 4.01189 10.3081 3.89852 9.96798C3.79387 9.61914 3.97701 9.25286 4.31713 9.13949C9.5148 7.40402 15.2357 7.40402 20.4247 9.13949C20.7648 9.25286 20.9567 9.62786 20.8346 9.96798C20.7561 10.2383 20.4945 10.4127 20.2241 10.4127Z" fill="#7E57C2"/>
</svg>
