<svg width="25" height="25" viewBox="0 0 25 25" fill="none" xmlns="http://www.w3.org/2000/svg">
<path d="M5.20829 14.5835C2.90621 14.5835 1.04163 16.4481 1.04163 18.7502C1.04163 21.0522 2.90621 22.9168 5.20829 22.9168C7.51038 22.9168 9.37496 21.0522 9.37496 18.7502C9.37496 16.4481 7.51038 14.5835 5.20829 14.5835ZM6.24996 18.4168C6.24996 19.0522 5.90621 19.6564 5.36454 19.9793L4.57288 20.4585C4.44788 20.5418 4.30204 20.5731 4.16663 20.5731C3.90621 20.5731 3.64579 20.4377 3.49996 20.1981C3.28121 19.8335 3.39579 19.3439 3.77079 19.1252L4.56246 18.646C4.63538 18.6043 4.68746 18.5106 4.68746 18.4272V17.4585C4.68746 17.021 5.04163 16.6668 5.46871 16.6668C5.89579 16.6668 6.24996 17.021 6.24996 17.4481V18.4168Z" fill="white"/>
<path d="M17.7083 4.16675H7.29159C4.16659 4.16675 2.08325 5.72925 2.08325 9.37508V13.0834C2.08325 13.4688 2.47909 13.7084 2.82284 13.5522C3.84367 13.0834 5.02075 12.9063 6.26034 13.1251C8.99992 13.6147 11.0103 16.1563 10.9374 18.9376C10.927 19.3751 10.8645 19.8022 10.7499 20.2188C10.6666 20.5418 10.927 20.8438 11.2603 20.8438H17.7083C20.8333 20.8438 22.9166 19.2813 22.9166 15.6355V9.37508C22.9166 5.72925 20.8333 4.16675 17.7083 4.16675ZM12.4999 15.1042C11.0624 15.1042 9.89575 13.9376 9.89575 12.5001C9.89575 11.0626 11.0624 9.89592 12.4999 9.89592C13.9374 9.89592 15.1041 11.0626 15.1041 12.5001C15.1041 13.9376 13.9374 15.1042 12.4999 15.1042ZM20.052 14.5834C20.052 15.0105 19.6978 15.3647 19.2708 15.3647C18.8437 15.3647 18.4895 15.0105 18.4895 14.5834V10.4167C18.4895 9.98967 18.8437 9.6355 19.2708 9.6355C19.6978 9.6355 20.052 9.98967 20.052 10.4167V14.5834Z" fill="white"/>
</svg>
