<svg width="25" height="24" viewBox="0 0 25 24" fill="none" xmlns="http://www.w3.org/2000/svg">
<path d="M10.543 3.14941C11.5596 2.33305 13.153 2.28692 14.2549 3.00684L14.4688 3.16113L21.0137 8.39648V8.39746C21.3916 8.70556 21.7196 9.18882 21.9307 9.74121C22.1407 10.2911 22.2189 10.8673 22.1465 11.3477L20.8877 18.8848C20.6386 20.3182 19.2435 21.5 17.7998 21.5H7.2002C5.827 21.5 4.54309 20.4867 4.18262 19.1641L4.12305 18.8955L2.86328 11.3574V11.3564L2.83984 11.1709C2.80172 10.7279 2.88061 10.2244 3.06445 9.74219C3.24829 9.2601 3.52465 8.83066 3.84961 8.52441L3.99219 8.40039L10.543 3.15039V3.14941ZM12.5 13.75C11.8139 13.75 11.25 14.3139 11.25 15V18C11.25 18.6861 11.8139 19.25 12.5 19.25C13.1861 19.25 13.75 18.6861 13.75 18V15C13.75 14.3139 13.1861 13.75 12.5 13.75Z" fill="#F9A825" stroke="#F9A825"/>
</svg>
