<svg width="49" height="49" viewBox="0 0 49 49" fill="none" xmlns="http://www.w3.org/2000/svg">
<g clip-path="url(#clip0_170_6669)">
<path d="M37.25 0.435547H11.75C5.5368 0.435547 0.5 5.47234 0.5 11.6855V37.1855C0.5 43.3988 5.5368 48.4355 11.75 48.4355H37.25C43.4632 48.4355 48.5 43.3988 48.5 37.1855V11.6855C48.5 5.47234 43.4632 0.435547 37.25 0.435547Z" fill="url(#paint0_radial_170_6669)"/>
<path d="M37.25 0.435547H11.75C5.5368 0.435547 0.5 5.47234 0.5 11.6855V37.1855C0.5 43.3988 5.5368 48.4355 11.75 48.4355H37.25C43.4632 48.4355 48.5 43.3988 48.5 37.1855V11.6855C48.5 5.47234 43.4632 0.435547 37.25 0.435547Z" fill="url(#paint1_radial_170_6669)"/>
<path d="M24.5017 5.68555C19.4096 5.68555 18.7704 5.70786 16.7705 5.7988C14.7744 5.8903 13.4118 6.20623 12.2197 6.66992C10.9863 7.1488 9.94025 7.78948 8.89813 8.83198C7.85506 9.8743 7.21438 10.9204 6.734 12.1532C6.269 13.3457 5.95269 14.7088 5.86287 16.704C5.77344 18.704 5.75 19.3434 5.75 24.4357C5.75 29.528 5.7725 30.1652 5.86325 32.165C5.95513 34.1612 6.27106 35.5237 6.73438 36.7159C7.21362 37.9492 7.85431 38.9953 8.89681 40.0374C9.93875 41.0805 10.9848 41.7227 12.2172 42.2015C13.4103 42.6652 14.7731 42.9812 16.7688 43.0727C18.7689 43.1636 19.4075 43.1859 24.4994 43.1859C29.5921 43.1859 30.2292 43.1636 32.2291 43.0727C34.2253 42.9812 35.5893 42.6652 36.7824 42.2015C38.0152 41.7227 39.0597 41.0805 40.1015 40.0374C41.1446 38.9953 41.7851 37.9492 42.2656 36.7164C42.7265 35.5237 43.043 34.1608 43.1367 32.1654C43.2266 30.1655 43.25 29.528 43.25 24.4357C43.25 19.3434 43.2266 18.7044 43.1367 16.7044C43.043 14.7082 42.7265 13.3459 42.2656 12.1537C41.7851 10.9204 41.1446 9.8743 40.1015 8.83198C39.0586 7.78911 38.0156 7.14842 36.7812 6.67011C35.5859 6.20623 34.2226 5.89011 32.2265 5.7988C30.2264 5.70786 29.5897 5.68555 24.4959 5.68555H24.5017ZM22.8196 9.06448C23.3189 9.06373 23.876 9.06448 24.5017 9.06448C29.5081 9.06448 30.1014 9.08248 32.0784 9.1723C33.9065 9.25592 34.8988 9.56136 35.5597 9.81805C36.4347 10.1578 37.0586 10.5641 37.7144 11.2205C38.3707 11.8768 38.7768 12.5017 39.1175 13.3768C39.3742 14.0368 39.68 15.029 39.7633 16.8572C39.8531 18.8338 39.8726 19.4274 39.8726 24.4314C39.8726 29.4354 39.8531 30.0292 39.7633 32.0057C39.6796 33.8338 39.3742 34.826 39.1175 35.4862C38.7778 36.3613 38.3707 36.9844 37.7144 37.6402C37.0582 38.2965 36.4351 38.7026 35.5597 39.0425C34.8995 39.3004 33.9065 39.605 32.0784 39.6887C30.1017 39.7785 29.5081 39.798 24.5017 39.798C19.4951 39.798 18.9016 39.7785 16.9252 39.6887C15.0971 39.6043 14.1048 39.2989 13.4433 39.0422C12.5684 38.7022 11.9433 38.2961 11.2871 37.6399C10.6308 36.9836 10.2247 36.3602 9.884 35.4847C9.62731 34.8245 9.3215 33.8323 9.23825 32.0042C9.14844 30.0275 9.13044 29.4339 9.13044 24.4267C9.13044 19.4195 9.14844 18.8291 9.23825 16.8525C9.32188 15.0244 9.62731 14.0321 9.884 13.3712C10.2239 12.4961 10.6308 11.8712 11.2873 11.2149C11.9437 10.5587 12.5684 10.1524 13.4435 9.81186C14.1044 9.55405 15.0971 9.24936 16.9252 9.16536C18.6549 9.08717 19.3252 9.06373 22.8196 9.0598V9.06448ZM34.5104 12.1777C33.2683 12.1777 32.2604 13.1846 32.2604 14.427C32.2604 15.6692 33.2683 16.677 34.5104 16.677C35.7526 16.677 36.7604 15.6692 36.7604 14.427C36.7604 13.1848 35.7526 12.177 34.5104 12.177V12.1777ZM24.5017 14.8067C19.1842 14.8067 14.8728 19.118 14.8728 24.4357C14.8728 29.7534 19.1842 34.0627 24.5017 34.0627C29.8194 34.0627 34.1292 29.7534 34.1292 24.4357C34.1292 19.1182 29.819 14.8067 24.5013 14.8067H24.5017ZM24.5017 18.1856C27.9534 18.1856 30.7518 20.9837 30.7518 24.4357C30.7518 27.8874 27.9534 30.6859 24.5017 30.6859C21.05 30.6859 18.2518 27.8874 18.2518 24.4357C18.2518 20.9837 21.0498 18.1856 24.5017 18.1856Z" fill="white"/>
</g>
<defs>
<radialGradient id="paint0_radial_170_6669" cx="0" cy="0" r="1" gradientUnits="userSpaceOnUse" gradientTransform="translate(13.25 52.1325) rotate(-90) scale(47.5716 44.2453)">
<stop stop-color="#FFDD55"/>
<stop offset="0.1" stop-color="#FFDD55"/>
<stop offset="0.5" stop-color="#FF543E"/>
<stop offset="1" stop-color="#C837AB"/>
</radialGradient>
<radialGradient id="paint1_radial_170_6669" cx="0" cy="0" r="1" gradientUnits="userSpaceOnUse" gradientTransform="translate(-7.54019 3.89323) rotate(78.681) scale(21.2648 87.654)">
<stop stop-color="#3771C8"/>
<stop offset="0.128" stop-color="#3771C8"/>
<stop offset="1" stop-color="#6600FF" stop-opacity="0"/>
</radialGradient>
<clipPath id="clip0_170_6669">
<rect width="48" height="48" fill="white" transform="translate(0.5 0.435547)"/>
</clipPath>
</defs>
</svg>
