<svg width="12" height="15" viewBox="0 0 12 15" fill="none" xmlns="http://www.w3.org/2000/svg">
<path d="M4.74333 14.0405C5.14733 14.3738 5.56867 14.6785 6 14.9758C6.43226 14.6824 6.85155 14.3704 7.25667 14.0405C7.932 13.486 8.56756 12.8847 9.15867 12.2412C10.5213 10.7512 12 8.59117 12 6.1665C12 5.37857 11.8448 4.59836 11.5433 3.8704C11.2417 3.14245 10.7998 2.48101 10.2426 1.92386C9.68549 1.36671 9.02405 0.924755 8.2961 0.623227C7.56815 0.321698 6.78793 0.166504 6 0.166504C5.21207 0.166504 4.43185 0.321698 3.7039 0.623227C2.97595 0.924755 2.31451 1.36671 1.75736 1.92386C1.20021 2.48101 0.758251 3.14245 0.456723 3.8704C0.155195 4.59836 -1.17411e-08 5.37857 0 6.1665C0 8.59117 1.47867 10.7505 2.84133 12.2412C3.43241 12.885 4.06798 13.4858 4.74333 14.0405ZM6 8.33317C5.42536 8.33317 4.87426 8.1049 4.46794 7.69857C4.06161 7.29224 3.83333 6.74114 3.83333 6.1665C3.83333 5.59187 4.06161 5.04077 4.46794 4.63444C4.87426 4.22811 5.42536 3.99984 6 3.99984C6.57464 3.99984 7.12574 4.22811 7.53206 4.63444C7.93839 5.04077 8.16667 5.59187 8.16667 6.1665C8.16667 6.74114 7.93839 7.29224 7.53206 7.69857C7.12574 8.1049 6.57464 8.33317 6 8.33317Z" fill="#356C56"/>
</svg>
