<svg width="24" height="25" viewBox="0 0 24 25" fill="none" xmlns="http://www.w3.org/2000/svg">
<g clip-path="url(#clip0_70_2891)">
<path d="M0.601185 12.3563C0.600627 14.3728 1.12751 16.3417 2.12937 18.0771L0.505371 24.0066L6.57346 22.4156C8.25183 23.3292 10.1323 23.808 12.0432 23.8081H12.0483C18.3566 23.8081 23.4918 18.6748 23.4945 12.3653C23.4957 9.30792 22.3061 6.43295 20.1448 4.26997C17.9839 2.10718 15.1099 0.915458 12.0478 0.914062C5.73867 0.914062 0.603883 6.04709 0.601278 12.3563" fill="url(#paint0_linear_70_2891)"/>
<path d="M0.192552 12.3527C0.191901 14.4417 0.737669 16.481 1.77525 18.2786L0.0930176 24.4207L6.37869 22.7726C8.1106 23.7168 10.0606 24.2147 12.0447 24.2154H12.0499C18.5846 24.2154 23.9042 18.8975 23.907 12.3621C23.9081 9.19488 22.6757 6.21656 20.4372 3.97609C18.1984 1.73591 15.2217 0.501302 12.0499 0.5C5.51404 0.5 0.195157 5.81721 0.192552 12.3527ZM3.9359 17.969L3.7012 17.5965C2.7146 16.0277 2.19385 14.2149 2.1946 12.3534C2.19665 6.9213 6.61748 2.50186 12.0536 2.50186C14.6861 2.50298 17.1602 3.52921 19.021 5.39116C20.8818 7.2533 21.9057 9.72865 21.905 12.3614C21.9026 17.7935 17.4817 22.2135 12.0499 22.2135H12.0459C10.2773 22.2126 8.54269 21.7376 7.02995 20.84L6.66995 20.6265L2.9399 21.6045L3.9359 17.969Z" fill="url(#paint1_linear_70_2891)"/>
<path d="M9.0863 7.39771C8.86434 6.9044 8.63076 6.89445 8.41969 6.8858C8.24686 6.87836 8.04927 6.87892 7.85188 6.87892C7.6543 6.87892 7.33327 6.95324 7.06193 7.24952C6.7903 7.54608 6.0249 8.26273 6.0249 9.72031C6.0249 11.1779 7.08658 12.5866 7.23458 12.7845C7.38276 12.982 9.28416 16.0689 12.2955 17.2564C14.7982 18.2433 15.3075 18.047 15.8507 17.9975C16.3939 17.9482 17.6036 17.2811 17.8504 16.5892C18.0974 15.8975 18.0974 15.3046 18.0233 15.1807C17.9493 15.0572 17.7517 14.9831 17.4554 14.835C17.1591 14.6869 15.7025 13.9701 15.4309 13.8712C15.1593 13.7724 14.9618 13.7231 14.7642 14.0198C14.5667 14.3159 13.9993 14.9831 13.8264 15.1807C13.6536 15.3787 13.4807 15.4034 13.1845 15.2552C12.8881 15.1065 11.9339 14.7941 10.8019 13.7849C9.92118 12.9996 9.32658 12.0298 9.15374 11.7331C8.9809 11.437 9.13523 11.2764 9.28379 11.1288C9.4169 10.996 9.58016 10.7828 9.72844 10.6099C9.87616 10.4369 9.92546 10.3134 10.0243 10.1158C10.1231 9.91808 10.0736 9.74506 9.99969 9.59687C9.92546 9.44868 9.34974 7.98347 9.0863 7.39771Z" fill="white"/>
</g>
<defs>
<linearGradient id="paint0_linear_70_2891" x1="1149.96" y1="2310.17" x2="1149.96" y2="0.914062" gradientUnits="userSpaceOnUse">
<stop stop-color="#1FAF38"/>
<stop offset="1" stop-color="#60D669"/>
</linearGradient>
<linearGradient id="paint1_linear_70_2891" x1="1190.79" y1="2392.57" x2="1190.79" y2="0.5" gradientUnits="userSpaceOnUse">
<stop stop-color="#F9F9F9"/>
<stop offset="1" stop-color="white"/>
</linearGradient>
<clipPath id="clip0_70_2891">
<rect width="23.82" height="24" fill="white" transform="translate(0.0899658 0.5)"/>
</clipPath>
</defs>
</svg>
