<svg width="20" height="20" viewBox="0 0 20 20" fill="none" xmlns="http://www.w3.org/2000/svg">
<path d="M7.41667 16.1667H7C3.66667 16.1667 2 15.3333 2 11.1667V7C2 3.66667 3.66667 2 7 2H13.6667C17 2 18.6667 3.66667 18.6667 7V11.1667C18.6667 14.5 17 16.1667 13.6667 16.1667H13.25C12.9917 16.1667 12.7417 16.2917 12.5833 16.5L11.3333 18.1667C10.7833 18.9 9.88333 18.9 9.33333 18.1667L8.08333 16.5C7.95 16.3167 7.64167 16.1667 7.41667 16.1667Z" stroke="#F9A825" stroke-width="1.5" stroke-miterlimit="10" stroke-linecap="round" stroke-linejoin="round"/>
<path d="M6.36523 7.15039H14.3652" stroke="#F9A825" stroke-width="1.5" stroke-linecap="round" stroke-linejoin="round"/>
<path d="M6.36523 11.1387H11.1652" stroke="#F9A825" stroke-width="1.5" stroke-linecap="round" stroke-linejoin="round"/>
</svg>
