<svg width="24" height="24" viewBox="0 0 24 24" fill="none" xmlns="http://www.w3.org/2000/svg">
<path d="M7.41602 4.02051H16.583C18.1609 4.02051 19.3371 4.47293 20.1191 5.25488C20.9011 6.03688 21.3535 7.21317 21.3535 8.79102V15.208C21.3535 16.786 20.9012 17.9621 20.1191 18.7441C19.3371 19.5262 18.161 19.9785 16.583 19.9785H7.41602C5.83817 19.9785 4.66188 19.5261 3.87988 18.7441C3.09793 17.9621 2.64551 16.7859 2.64551 15.208V8.79102C2.64557 7.21317 3.09789 6.03688 3.87988 5.25488C4.66188 4.47289 5.83817 4.02057 7.41602 4.02051ZM7.41602 4.39551C6.03184 4.39556 4.90664 4.73203 4.13184 5.50684C3.35703 6.28164 3.02056 7.40684 3.02051 8.79102V15.208C3.02051 16.5922 3.35709 17.7173 4.13184 18.4922C4.90664 19.267 6.03184 19.6035 7.41602 19.6035H16.583C17.9673 19.6035 19.0923 19.2671 19.8672 18.4922C20.642 17.7173 20.9785 16.5923 20.9785 15.208V8.79102C20.9785 7.40684 20.642 6.28164 19.8672 5.50684C19.0923 4.73209 17.9672 4.39551 16.583 4.39551H7.41602Z" fill="#2E3651" stroke="#2E3651"/>
<path d="M12 15.4375C10.1025 15.4375 8.5625 13.8975 8.5625 12C8.5625 10.1025 10.1025 8.5625 12 8.5625C13.8975 8.5625 15.4375 10.1025 15.4375 12C15.4375 13.8975 13.8975 15.4375 12 15.4375ZM12 9.9375C10.8633 9.9375 9.9375 10.8633 9.9375 12C9.9375 13.1367 10.8633 14.0625 12 14.0625C13.1367 14.0625 14.0625 13.1367 14.0625 12C14.0625 10.8633 13.1367 9.9375 12 9.9375Z" fill="#2E3651"/>
<path d="M3.74967 9.93783H2.83301C2.45717 9.93783 2.14551 9.62616 2.14551 9.25033C2.14551 8.87449 2.45717 8.56283 2.83301 8.56283H3.74967C6.11467 8.56283 6.72884 7.94866 6.72884 5.58366V4.66699C6.72884 4.29116 7.04051 3.97949 7.41634 3.97949C7.79217 3.97949 8.10384 4.29116 8.10384 4.66699V5.58366C8.10384 8.71866 6.88467 9.93783 3.74967 9.93783Z" fill="#2E3651"/>
<path d="M21.1663 9.93783H20.2497C17.1147 9.93783 15.8955 8.71866 15.8955 5.58366V4.66699C15.8955 4.29116 16.2072 3.97949 16.583 3.97949C16.9588 3.97949 17.2705 4.29116 17.2705 4.66699V5.58366C17.2705 7.94866 17.8847 8.56283 20.2497 8.56283H21.1663C21.5422 8.56283 21.8538 8.87449 21.8538 9.25033C21.8538 9.62616 21.5422 9.93783 21.1663 9.93783Z" fill="#2E3651"/>
<path d="M7.41634 20.0208C7.04051 20.0208 6.72884 19.7092 6.72884 19.3333V18.4167C6.72884 16.0517 6.11467 15.4375 3.74967 15.4375H2.83301C2.45717 15.4375 2.14551 15.1258 2.14551 14.75C2.14551 14.3742 2.45717 14.0625 2.83301 14.0625H3.74967C6.88467 14.0625 8.10384 15.2817 8.10384 18.4167V19.3333C8.10384 19.7092 7.79217 20.0208 7.41634 20.0208Z" fill="#2E3651"/>
<path d="M16.583 20.0208C16.2072 20.0208 15.8955 19.7092 15.8955 19.3333V18.4167C15.8955 15.2817 17.1147 14.0625 20.2497 14.0625H21.1663C21.5422 14.0625 21.8538 14.3742 21.8538 14.75C21.8538 15.1258 21.5422 15.4375 21.1663 15.4375H20.2497C17.8847 15.4375 17.2705 16.0517 17.2705 18.4167V19.3333C17.2705 19.7092 16.9588 20.0208 16.583 20.0208Z" fill="#2E3651"/>
</svg>
