<svg width="16" height="16" viewBox="0 0 16 16" fill="none" xmlns="http://www.w3.org/2000/svg">
<path d="M5.56115 11.6626H3.59766V11.896C3.59766 12.1667 3.70201 12.4256 3.88687 12.6151C4.07144 12.8042 4.32067 12.909 4.57888 12.9091C4.83705 12.9091 5.08627 12.8041 5.27088 12.6151C5.45574 12.4256 5.56115 12.1667 5.56115 11.896V11.6626ZM13.9231 11.896C13.923 11.6253 13.8176 11.3674 13.6328 11.1779C13.4482 10.9887 13.1991 10.8828 12.9408 10.8828C12.6826 10.8829 12.4334 10.9887 12.2488 11.1779C12.0642 11.3673 11.9596 11.6254 11.9596 11.896L11.9638 11.9972C11.9864 12.2305 12.0871 12.4493 12.2488 12.6151C12.4334 12.8042 12.6826 12.909 12.9408 12.9091C13.199 12.9091 13.4482 12.8041 13.6328 12.6151C13.8177 12.4256 13.9231 12.1667 13.9231 11.896ZM6.09961 5.11719L6.20793 5.12784C6.45338 5.17864 6.63807 5.399 6.63807 5.66264C6.63793 5.92612 6.45324 6.14556 6.20793 6.19638L6.09961 6.2081H3.81851C3.52145 6.20783 3.28021 5.96358 3.28005 5.66264C3.28005 5.36156 3.52135 5.11746 3.81851 5.11719H6.09961ZM6.63807 11.896C6.63807 12.4517 6.42271 12.986 6.03756 13.381C5.65196 13.7763 5.12698 14 4.57888 14C4.03088 13.9999 3.50677 13.7762 3.12124 13.381C2.73596 12.986 2.52073 12.4518 2.52073 11.896V11.6626H1.53846C1.24118 11.6626 1.00016 11.4183 1 11.1172V10.3374C1.00008 9.57493 1.29564 8.84258 1.82347 8.30149C2.35151 7.76022 3.06897 7.45468 3.81851 7.45455H6.09961C6.39697 7.45458 6.63807 7.69877 6.63807 8V10.5717H8.77194C9.10142 9.79283 9.6113 9.10476 10.2622 8.57102C10.8877 8.05803 11.6217 7.70662 12.4023 7.53871V4.10405C12.4023 3.83332 12.298 3.57443 12.1131 3.38494C11.9515 3.2193 11.7402 3.11889 11.5168 3.09624L11.4211 3.09091H10.6608C10.3634 3.09091 10.1223 2.8467 10.1223 2.54545C10.1223 2.24421 10.3634 2 10.6608 2H11.4211L11.6252 2.01065C12.0979 2.05882 12.5414 2.27315 12.8788 2.61896C13.264 3.01399 13.4793 3.54821 13.4793 4.10405V8C13.4793 8.2774 13.2739 8.51092 13.0018 8.54226C12.2484 8.62909 11.5337 8.9327 10.9405 9.41903C10.3472 9.90555 9.8993 10.5552 9.65009 11.293C9.57558 11.5136 9.37025 11.6626 9.14002 11.6626H6.63807V11.896ZM15 11.896C15 12.4517 14.7847 12.986 14.3995 13.381C14.0139 13.7763 13.4889 14 12.9408 14C12.3928 13.9999 11.8687 13.7762 11.4832 13.381C11.1462 13.0355 10.9387 12.5836 10.8921 12.1037L10.8827 11.896C10.8827 11.3401 11.0979 10.8059 11.4832 10.4109C11.8687 10.0157 12.3928 9.792 12.9408 9.7919C13.4889 9.7919 14.0139 10.0156 14.3995 10.4109C14.7847 10.8059 15 11.3402 15 11.896ZM2.07692 10.5717H5.56115V8.54545H3.81851C3.35873 8.54559 2.91618 8.73325 2.58909 9.06854C2.26198 9.40405 2.077 9.86026 2.07692 10.3374V10.5717Z" fill="#6C7278"/>
</svg>
