<svg width="22" height="21" viewBox="0 0 22 21" fill="none" xmlns="http://www.w3.org/2000/svg">
<path d="M16.5205 0.00268555C17.1071 -0.0271101 18.1288 0.195108 18.8672 0.912842C19.1957 1.2323 19.3566 1.62055 19.4463 1.96265C19.5265 2.26874 19.5617 2.5909 19.5889 2.84253C19.5912 2.86365 19.5935 2.88496 19.5957 2.90503C19.6865 3.73437 19.9566 4.52852 20.6348 5.39722C21.979 7.11939 21.5627 8.85721 20.6445 9.71655C20.6008 9.7575 20.5502 9.79857 20.498 9.84448V13.7957C20.4981 15.1653 20.4984 16.2694 20.3818 17.1375C20.2609 18.0382 20.0018 18.7967 19.4004 19.3992C18.7985 20.0019 18.04 20.2613 17.1396 20.3826C16.2726 20.4993 15.1702 20.4998 13.8027 20.4998H7.69336C6.32605 20.4998 5.22342 20.4993 4.35645 20.3826C3.45613 20.2613 2.69758 20.0019 2.0957 19.3992C1.49421 18.7967 1.23524 18.0383 1.11426 17.1375C0.99772 16.2694 0.998026 15.1653 0.998047 13.7957L0.998047 9.89331C0.819215 9.71579 0.657139 9.51118 0.52832 9.27319C0.226881 8.71619 -0.0503264 8.14412 0.0078125 7.44409C0.0631829 6.778 0.411525 6.11763 0.947266 5.31128C1.45126 4.55271 1.7004 4.00307 1.82617 3.60034C1.94859 3.20832 1.96289 2.92892 1.96289 2.68433C1.96297 2.22054 2.113 1.54501 2.57031 0.981201C3.05564 0.382978 3.83129 -0.0190044 4.91406 0.0310059L16.5205 0.00268555ZM6.92383 9.17651C6.81096 9.36578 6.68074 9.54874 6.53418 9.72046C5.8826 10.4837 4.89274 11.0369 3.59863 11.0076C3.5815 11.0072 3.56394 11.0062 3.54687 11.0046C3.25697 10.9781 2.88605 10.9052 2.49805 10.7751L2.49805 13.741C2.49805 15.1781 2.49906 16.1807 2.60059 16.9373C2.69928 17.6724 2.88027 18.0622 3.15723 18.3396C3.43397 18.6168 3.8224 18.7975 4.55566 18.8962C5.31093 18.9979 6.3126 18.9998 7.74805 18.9998H13.748C15.1833 18.9998 16.1842 18.9979 16.9395 18.8962C17.673 18.7975 18.062 18.6168 18.3389 18.3396C18.6157 18.0622 18.7959 17.6723 18.8945 16.9373C18.9961 16.1807 18.998 15.1781 18.998 13.741V10.78C18.2982 11.047 17.4522 11.1436 16.5273 10.7625C15.7344 10.4356 15.1302 10.0024 14.7129 9.38647C14.6692 9.32204 14.6284 9.25591 14.5898 9.18921C14.5191 9.27564 14.445 9.36051 14.3691 9.44214C13.8153 10.0381 13.0864 10.5476 12.2627 10.7761C11.4914 10.99 10.2623 11.0974 9.05273 10.6833C8.27483 10.4171 7.52398 9.94024 6.92383 9.17651ZM9.74805 15.4763C10.1622 15.4764 10.498 15.8122 10.498 16.2263C10.498 16.6405 10.1622 16.9762 9.74805 16.9763H5.74805C5.33384 16.9763 4.99806 16.6405 4.99805 16.2263C4.99805 15.8121 5.33383 15.4763 5.74805 15.4763L9.74805 15.4763ZM16.5439 1.50269L4.89844 1.53101C4.88508 1.53104 4.87174 1.53071 4.8584 1.53003C4.21423 1.49689 3.90424 1.71829 3.73535 1.92651C3.53554 2.17286 3.46298 2.49378 3.46289 2.68433C3.46289 3.02492 3.43945 3.46592 3.25781 4.04761C3.0795 4.61851 2.75745 5.29675 2.19629 6.14136C1.66707 6.93792 1.52382 7.31775 1.50293 7.56812C1.48495 7.78459 1.54745 8.00639 1.84668 8.55933C1.98978 8.82375 2.27262 9.05256 2.6543 9.22827C3.01865 9.396 3.40362 9.48204 3.65918 9.50854C4.45076 9.51906 5.01346 9.19201 5.39355 8.74683C5.79579 8.27556 5.9873 7.6753 5.9873 7.21655C5.9874 6.84776 6.25585 6.53407 6.62012 6.47632C6.98444 6.41856 7.33708 6.63432 7.45117 6.98511C7.89641 8.35366 8.71705 8.98325 9.53809 9.2644C10.4004 9.55958 11.3133 9.48313 11.8623 9.33081C12.3611 9.19235 12.8603 8.86212 13.2705 8.42065C13.6824 7.97736 13.9563 7.4733 14.0547 7.04761C14.1371 6.69127 14.465 6.44694 14.8301 6.46851C15.1952 6.49028 15.4916 6.77188 15.5312 7.1355C15.603 7.79674 15.7401 8.22738 15.9551 8.54468C16.1628 8.8513 16.4937 9.12637 17.0986 9.37573C18.0928 9.78548 19.0124 9.18872 19.6191 8.62085C19.9507 8.31049 20.3355 7.4517 19.4521 6.32007C18.594 5.22071 18.2241 4.16036 18.1045 3.06812L18.1006 3.03589C18.0698 2.75424 18.046 2.53662 17.9951 2.34253C17.945 2.15143 17.8842 2.0492 17.8213 1.98804C17.6346 1.80665 17.3932 1.67611 17.1465 1.59448C16.8933 1.51077 16.683 1.49478 16.5918 1.50073C16.5761 1.50176 16.5597 1.50265 16.5439 1.50269Z" fill="#B1B1B1"/>
</svg>
