<svg width="24" height="24" viewBox="0 0 24 24" fill="none" xmlns="http://www.w3.org/2000/svg">
<path d="M10.429 15.2588L10.4239 15.2468C10.3204 15.2224 10.2175 15.1955 10.1153 15.1662L10.1076 15.1637C9.12981 14.8826 8.22685 14.3875 7.46414 13.7142C6.62533 12.9743 5.98027 12.0404 5.5852 10.9939C5.19014 9.94746 5.05706 8.82024 5.19758 7.71056C5.33809 6.60088 5.74794 5.54242 6.39137 4.62747C7.0348 3.71252 7.89229 2.96886 8.88907 2.46134C9.88584 1.95381 10.9916 1.69784 12.11 1.71572C13.2284 1.73361 14.3255 2.02481 15.3055 2.56395C16.2856 3.10308 17.1188 3.87378 17.7327 4.80884C18.3465 5.74389 18.7223 6.81492 18.8273 7.92853C18.8607 8.28253 18.5701 8.57138 18.2144 8.57138C17.8596 8.57138 17.5759 8.28253 17.5347 7.92938C17.4214 6.95506 17.0529 6.02792 16.4664 5.24169C15.8799 4.45546 15.0962 3.838 14.1946 3.45174C13.2929 3.06547 12.3053 2.9241 11.3315 3.04189C10.3577 3.15969 9.43228 3.53249 8.64875 4.1226C7.86523 4.71271 7.25139 5.49922 6.86928 6.40263C6.48717 7.30603 6.35034 8.2943 6.47261 9.26754C6.59489 10.2408 6.97195 11.1645 7.56566 11.9453C8.15937 12.7261 8.9487 13.3363 9.85385 13.7142L9.88814 13.7288C10.0596 13.7991 10.2356 13.8611 10.4161 13.9148C10.5679 13.5482 10.842 13.2456 11.1919 13.0585C11.5418 12.8715 11.9457 12.8116 12.3348 12.889C12.7239 12.9665 13.0741 13.1765 13.3257 13.4833C13.5773 13.7901 13.7147 14.1746 13.7144 14.5714C13.7148 14.9654 13.5795 15.3474 13.3312 15.6533C13.0829 15.9593 12.7369 16.1703 12.3512 16.251C11.9656 16.3317 11.5639 16.2771 11.2139 16.0964C10.8638 15.9157 10.5866 15.6199 10.429 15.2588ZM9.58385 16.3491C8.06117 15.8755 6.71105 14.9653 5.701 13.7314C5.07504 13.8047 4.4978 14.1053 4.07891 14.5762C3.66001 15.0471 3.42863 15.6554 3.42871 16.2857V16.8985C3.42871 20.0854 7.03728 22.2857 12.0001 22.2857C16.963 22.2857 20.5716 19.9645 20.5716 16.8985V16.2857C20.5716 15.6037 20.3006 14.9496 19.8184 14.4674C19.3362 13.9852 18.6821 13.7142 18.0001 13.7142H14.8759C15.078 14.3914 15.0347 15.1182 14.7534 15.7665C14.4721 16.4149 13.971 16.9431 13.3384 17.2581C12.7057 17.5731 11.9822 17.6546 11.2953 17.4883C10.6085 17.322 10.0024 16.9186 9.58385 16.3491ZM16.2859 8.57138C16.2859 7.27538 15.7116 6.11396 14.8021 5.32796C14.3458 4.93432 13.8116 4.64135 13.2344 4.46815C12.6572 4.29496 12.05 4.24544 11.4524 4.32283C10.8547 4.40022 10.2801 4.60277 9.76609 4.91727C9.25204 5.23178 8.81009 5.65115 8.4691 6.14802C8.12811 6.6449 7.89574 7.2081 7.78716 7.80086C7.67858 8.39363 7.69623 9.00262 7.83896 9.5881C7.98169 10.1736 8.24629 10.7224 8.61548 11.1987C8.98468 11.675 9.45017 12.068 9.98157 12.3522C10.5338 11.8499 11.2536 11.5714 12.0001 11.5714C12.747 11.5712 13.4671 11.8497 14.0196 12.3522C14.7044 11.9864 15.2769 11.4414 15.6761 10.7755C16.0752 10.1096 16.286 9.34777 16.2859 8.57138Z" fill="#FFCA42"/>
</svg>
