<svg width="25" height="25" viewBox="0 0 25 25" fill="none" xmlns="http://www.w3.org/2000/svg">
<path d="M17.1357 21.6317C16.4654 21.6317 15.8965 21.3973 15.4292 20.9286C14.9625 20.4593 14.7292 19.8894 14.7292 19.2191C14.7292 19.1179 14.7737 18.8627 14.8627 18.4533L7.58238 14.1309C7.36388 14.3831 7.09649 14.581 6.7802 14.7246C6.46392 14.8683 6.12437 14.9401 5.76155 14.9401C5.09661 14.9401 4.53147 14.7034 4.06615 14.23C3.60083 13.7566 3.36816 13.1891 3.36816 12.5275C3.36816 11.8659 3.60083 11.2984 4.06615 10.825C4.53147 10.3516 5.09661 10.1149 5.76155 10.1149C6.12369 10.1149 6.46324 10.1867 6.7802 10.3304C7.09716 10.474 7.36456 10.6723 7.58238 10.9252L14.8637 6.62093C14.8165 6.4901 14.7824 6.36028 14.7615 6.23147C14.7399 6.10199 14.7292 5.96981 14.7292 5.83493C14.7292 5.16527 14.9642 4.59575 15.4342 4.12638C15.9043 3.65769 16.4748 3.42334 17.1458 3.42334C17.8168 3.42334 18.386 3.65836 18.8533 4.12841C19.3207 4.59845 19.554 5.16898 19.5534 5.83999C19.5527 6.511 19.3183 7.08018 18.8503 7.54753C18.3823 8.01487 17.8124 8.24821 17.1407 8.24754C16.7752 8.24754 16.438 8.17268 16.1292 8.02297C15.8203 7.87325 15.5573 7.67195 15.3401 7.41906L8.05782 11.7415C8.10503 11.8723 8.13908 12.0025 8.15999 12.132C8.18157 12.2608 8.19236 12.3926 8.19236 12.5275C8.19236 12.6624 8.18157 12.7942 8.15999 12.923C8.13841 13.0518 8.10469 13.182 8.05883 13.3135L15.3401 17.636C15.558 17.3831 15.821 17.1818 16.1292 17.032C16.438 16.8823 16.7752 16.8075 17.1407 16.8075C17.8111 16.8075 18.3809 17.0422 18.8503 17.5115C19.319 17.9823 19.5534 18.5531 19.5534 19.2241C19.5534 19.8951 19.3183 20.4643 18.8483 20.9317C18.3782 21.399 17.8067 21.6323 17.1357 21.6317Z" fill="#6C7278"/>
</svg>
