<svg width="14" height="15" viewBox="0 0 14 15" fill="none" xmlns="http://www.w3.org/2000/svg">
<path d="M8.03658 2.36651L9.09246 4.49573C9.23645 4.79212 9.62041 5.07642 9.94437 5.13086L11.8582 5.45145C13.082 5.65712 13.37 6.55236 12.4881 7.4355L11.0003 8.93563C10.7483 9.18968 10.6103 9.67964 10.6883 10.0305L11.1142 11.8875C11.4502 13.3574 10.6763 13.926 9.38643 13.1578L7.59263 12.0871C7.26867 11.8935 6.73473 11.8935 6.40476 12.0871L4.61096 13.1578C3.3271 13.926 2.54719 13.3513 2.88315 11.8875L3.3091 10.0305C3.3871 9.67964 3.24911 9.18968 2.99714 8.93563L1.5093 7.4355C0.6334 6.55236 0.915369 5.65712 2.13923 5.45145L4.05302 5.13086C4.37099 5.07642 4.75494 4.79212 4.89893 4.49573L5.95481 2.36651C6.53075 1.21116 7.46664 1.21116 8.03658 2.36651Z" fill="#F9A825"/>
<path d="M6.99771 1C7.65537 1.00005 8.16493 1.49665 8.48501 2.14551H8.48404L9.5397 4.27344L9.54165 4.27734L9.56997 4.3252C9.60636 4.37748 9.66641 4.44169 9.74869 4.50293C9.85833 4.5845 9.96331 4.62699 10.027 4.6377L11.9401 4.95801H11.9411L12.1979 5.01367C12.7847 5.16708 13.2673 5.49863 13.4391 6.03711C13.6353 6.65239 13.3451 7.28467 12.8415 7.78906L12.8405 7.78809L11.3551 9.28809C11.3037 9.33999 11.2406 9.44318 11.2008 9.58301C11.1612 9.72265 11.1597 9.8467 11.1764 9.92188L11.6012 11.7754V11.7764L11.6569 12.0674C11.7577 12.7447 11.6545 13.398 11.1559 13.7646C10.5838 14.1852 9.8123 13.993 9.13052 13.5869H9.12955L7.3356 12.5166C7.26988 12.4774 7.15018 12.4424 7.00064 12.4424C6.85168 12.4424 6.7286 12.4771 6.65787 12.5186L4.86685 13.5859L4.86783 13.5869C4.18676 13.9944 3.4155 14.1832 2.84341 13.7627C2.27382 13.3436 2.21717 12.551 2.39517 11.7754L2.82095 9.91895C2.83696 9.8435 2.8347 9.72085 2.79556 9.58301C2.76576 9.47816 2.72339 9.39351 2.68228 9.33594L2.64224 9.28809L1.15396 7.78711C0.653967 7.28288 0.365745 6.6521 0.560209 6.03809C0.755454 5.42234 1.35586 5.07571 2.0563 4.95801L3.96841 4.6377L4.02115 4.62402C4.08068 4.60397 4.15961 4.56539 4.24185 4.50391C4.35145 4.42196 4.42118 4.33433 4.44888 4.27734L4.45083 4.27344L5.5065 2.14453L5.50747 2.14355L5.63638 1.9082C5.95957 1.37909 6.42294 1 6.99771 1ZM6.99771 2C6.90009 2 6.65484 2.08265 6.40201 2.58984L5.34732 4.71289L5.3483 4.71387C5.23201 4.95325 5.03826 5.15682 4.84048 5.30469C4.64288 5.45242 4.39505 5.57985 4.13736 5.62402H4.1354L2.22134 5.94434C1.69838 6.0323 1.5462 6.23704 1.51333 6.34082C1.47999 6.44673 1.48879 6.70468 1.86392 7.08301L3.3522 8.58398L3.42349 8.66211C3.58428 8.85245 3.6938 9.08626 3.75747 9.31055C3.83023 9.56695 3.85773 9.86319 3.79654 10.1387V10.1426L3.36978 11.999C3.21198 12.6866 3.3777 12.9145 3.43521 12.957C3.49001 12.9974 3.75153 13.0891 4.35415 12.7285L6.1481 11.6582L6.15103 11.6562L6.25064 11.6025C6.48724 11.4888 6.7545 11.4424 7.00064 11.4424C7.28142 11.4424 7.59009 11.504 7.8483 11.6582L9.64224 12.7285L9.85415 12.8438C10.3111 13.0677 10.5161 12.9933 10.5631 12.959C10.6116 12.9234 10.7454 12.7463 10.6715 12.2373L10.6266 11.999L10.2008 10.1426L10.1999 10.1387C10.1387 9.86324 10.1662 9.56691 10.2389 9.31055C10.3116 9.05439 10.4447 8.78613 10.6452 8.58398L12.1325 7.08301L12.1344 7.08203L12.2594 6.94629C12.5138 6.6418 12.5152 6.43229 12.486 6.34082C12.4567 6.24955 12.3348 6.0818 11.9547 5.98242L11.7751 5.94434L9.86099 5.62402C9.60085 5.58027 9.35127 5.45388 9.15201 5.30566C8.95282 5.15747 8.75861 4.95342 8.64224 4.71387V4.71289L7.58853 2.58887L7.58755 2.58789C7.3378 2.08161 7.09449 2.00006 6.99771 2Z" fill="#F9A825"/>
</svg>
