<svg width="24" height="25" viewBox="0 0 24 25" fill="none" xmlns="http://www.w3.org/2000/svg">
<path d="M17 20.9307H7C2.59 20.9307 1.25 19.5907 1.25 15.1807V14.6807C1.25 14.2707 1.59 13.9307 2 13.9307C2.96 13.9307 3.75 13.1407 3.75 12.1807C3.75 11.2207 2.96 10.4307 2 10.4307C1.59 10.4307 1.25 10.0907 1.25 9.68066V9.18066C1.25 4.77066 2.59 3.43066 7 3.43066H17C21.41 3.43066 22.75 4.77066 22.75 9.18066V10.1807C22.75 10.5907 22.41 10.9307 22 10.9307C21.04 10.9307 20.25 11.7207 20.25 12.6807C20.25 13.6407 21.04 14.4307 22 14.4307C22.41 14.4307 22.75 14.7707 22.75 15.1807C22.75 19.5907 21.41 20.9307 17 20.9307ZM2.75 15.3407C2.77 18.7807 3.48 19.4307 7 19.4307H17C20.34 19.4307 21.15 18.8407 21.24 15.8407C19.81 15.5007 18.75 14.2107 18.75 12.6807C18.75 11.1507 19.82 9.86066 21.25 9.52066V9.18066C21.25 5.61066 20.58 4.93066 17 4.93066H7C3.48 4.93066 2.77 5.58066 2.75 9.02066C4.18 9.36066 5.25 10.6507 5.25 12.1807C5.25 13.7107 4.18 15.0007 2.75 15.3407Z" fill="#6C7278"/>
<path d="M10 7.43066C9.59 7.43066 9.25 7.09066 9.25 6.68066V4.18066C9.25 3.77066 9.59 3.43066 10 3.43066C10.41 3.43066 10.75 3.77066 10.75 4.18066V6.68066C10.75 7.09066 10.41 7.43066 10 7.43066Z" fill="#6C7278"/>
<path d="M10 14.7608C9.59 14.7608 9.25 14.4208 9.25 14.0108V10.3408C9.25 9.93082 9.59 9.59082 10 9.59082C10.41 9.59082 10.75 9.93082 10.75 10.3408V14.0108C10.75 14.4308 10.41 14.7608 10 14.7608Z" fill="#6C7278"/>
<path d="M10 20.9307C9.59 20.9307 9.25 20.5907 9.25 20.1807V17.6807C9.25 17.2707 9.59 16.9307 10 16.9307C10.41 16.9307 10.75 17.2707 10.75 17.6807V20.1807C10.75 20.5907 10.41 20.9307 10 20.9307Z" fill="#6C7278"/>
</svg>
