<svg width="45" height="45" viewBox="0 0 45 45" fill="none" xmlns="http://www.w3.org/2000/svg">
<g clip-path="url(#clip0_112_8512)">
<path d="M0.960352 22.2306C0.959297 26.0114 1.95492 29.7032 3.84809 32.9571L0.779297 44.0749L12.2459 41.0917C15.4174 42.8048 18.9708 43.7024 22.5818 43.7027H22.5913C34.5119 43.7027 44.2155 34.0778 44.2206 22.2475C44.2229 16.5149 41.975 11.1243 37.8909 7.06869C33.8075 3.01346 28.3768 0.778983 22.5904 0.776367C10.6684 0.776367 0.965273 10.4008 0.960352 22.2306Z" fill="url(#paint0_linear_112_8512)"/>
<path d="M0.188086 22.2237C0.186855 26.1406 1.21816 29.9644 3.17883 33.3349L0 44.8512L11.8777 41.761C15.1504 43.5316 18.8351 44.4651 22.5846 44.4665H22.5942C34.9425 44.4665 44.9947 34.4953 45 22.2415C45.0021 16.3029 42.6734 10.7185 38.4434 6.51767C34.2128 2.31733 28.5878 0.00244186 22.5942 0C10.2438 0 0.193008 9.96977 0.188086 22.2237ZM7.2617 32.7544L6.8182 32.0559C4.95387 29.1145 3.96984 25.7154 3.97125 22.2251C3.97512 12.0399 12.3289 3.75349 22.6013 3.75349C27.5759 3.75558 32.2509 5.67977 35.7673 9.17093C39.2834 12.6624 41.2182 17.3037 41.217 22.2401C41.2124 32.4253 32.8584 40.7128 22.5942 40.7128H22.5868C19.2447 40.711 15.9669 39.8205 13.1084 38.1375L12.4281 37.7372L5.37961 39.5709L7.2617 32.7544Z" fill="white"/>
<path d="M16.9939 12.9327C16.5745 12.0078 16.1331 11.9891 15.7343 11.9729C15.4077 11.9589 15.0343 11.96 14.6613 11.96C14.288 11.96 13.6813 12.0993 13.1686 12.6549C12.6553 13.2109 11.209 14.5546 11.209 17.2876C11.209 20.0206 13.2152 22.662 13.4948 23.0329C13.7749 23.4032 17.3678 29.1911 23.0582 31.4178C27.7874 33.2682 28.7498 32.9002 29.7762 32.8074C30.8028 32.7149 33.0887 31.464 33.555 30.1668C34.0217 28.8699 34.0217 27.7581 33.8818 27.5258C33.7419 27.2943 33.3685 27.1553 32.8086 26.8777C32.2488 26.6 29.4962 25.2559 28.9831 25.0705C28.4698 24.8853 28.0966 24.7928 27.7233 25.349C27.3499 25.9044 26.2778 27.1553 25.9511 27.5258C25.6246 27.8971 25.2978 27.9434 24.7382 27.6655C24.1779 27.3868 22.375 26.8009 20.2359 24.9086C18.5716 23.4362 17.448 21.6179 17.1214 21.0617C16.7948 20.5063 17.0864 20.2053 17.3671 19.9285C17.6187 19.6796 17.9272 19.2798 18.2074 18.9556C18.4865 18.6311 18.5797 18.3997 18.7663 18.0292C18.9532 17.6584 18.8597 17.334 18.7199 17.0561C18.5797 16.7783 17.4918 14.031 16.9939 12.9327Z" fill="white"/>
</g>
<defs>
<linearGradient id="paint0_linear_112_8512" x1="2172.85" y1="4330.63" x2="2172.85" y2="0.776367" gradientUnits="userSpaceOnUse">
<stop stop-color="#1FAF38"/>
<stop offset="1" stop-color="#60D669"/>
</linearGradient>
<clipPath id="clip0_112_8512">
<rect width="45" height="45" fill="white"/>
</clipPath>
</defs>
</svg>
